# This file uses centimeters as units for non-parametric coordinates.

mtllib wooden_pile.mtl
g default
v -5.303742 0.104290 0.209809
v -4.879911 0.104290 0.209809
v -4.456080 0.104290 0.209809
v -5.210164 3.508451 0.168231
v -4.879911 4.714085 0.096440
v -4.549659 3.508451 0.168231
v -5.210164 3.508451 -0.168231
v -4.879911 4.714085 -0.096440
v -4.549659 3.508451 -0.168231
v -5.303742 0.104290 -0.209809
v -4.879911 0.104290 -0.209809
v -4.456080 0.104290 -0.209809
v -5.266717 2.549880 0.181970
v -4.879911 2.549880 0.193783
v -4.493105 2.549880 0.181970
v -4.493105 2.549880 -0.181970
v -4.879911 2.549880 -0.193783
v -5.266717 2.549880 -0.181970
v -5.283990 1.559546 0.195882
v -4.879911 1.559546 0.195882
v -4.475833 1.559546 0.195882
v -4.475833 1.559546 -0.195882
v -4.879911 1.559546 -0.195882
v -5.283990 1.559546 -0.195882
v -4.879911 3.501961 0.176725
v -4.879911 3.498546 -0.176860
vt 0.012410 0.382398
vt 0.049315 0.381673
vt 0.049315 0.517124
vt 0.086220 0.382398
vt 0.145658 0.382398
vt 0.137635 0.517124
vt 0.116082 0.517124
vt 0.108059 0.382398
vt 0.169582 0.517124
vt 0.161559 0.382398
vt 0.199158 0.382398
vt 0.191136 0.517124
vt 0.220871 0.136718
vt 0.257776 0.001992
vt 0.257776 0.137825
vt 0.294681 0.136718
vt 0.409084 0.615762
vt 0.409084 0.568400
vt 0.455975 0.568400
vt 0.455975 0.615762
vt 0.409084 0.521038
vt 0.455975 0.521038
vt 0.160024 0.275280
vt 0.200693 0.275280
vt 0.106524 0.275280
vt 0.147193 0.275280
vt 0.004160 0.164613
vt 0.049315 0.164613
vt 0.049315 0.275280
vt 0.006090 0.275280
vt 0.094470 0.164613
vt 0.092540 0.275280
vt 0.158470 0.164613
vt 0.202248 0.164613
vt 0.257776 0.243836
vt 0.301000 0.243836
vt 0.302931 0.354504
vt 0.257776 0.354504
vt 0.214551 0.243836
vt 0.212621 0.354504
vt 0.104969 0.164613
vt 0.148748 0.164613
vt 0.001953 0.001992
vt 0.049315 0.001992
vt 0.096677 0.001992
vt 0.156913 0.001992
vt 0.203804 0.001992
vt 0.305138 0.517125
vt 0.257776 0.517125
vt 0.210414 0.517125
vt 0.103413 0.001992
vt 0.150304 0.001992
vn -0.026926 0.032927 0.999095
vn 0.000000 0.034804 0.999394
vn 0.000000 0.066091 0.997814
vn 0.026926 0.032927 0.999095
vn -0.964470 0.264192 0.000000
vn 0.000000 1.000000 0.000000
vn 0.000000 1.000000 0.000000
vn -0.964470 0.264192 0.000000
vn 0.964470 0.264192 0.000000
vn 0.964470 0.264192 0.000000
vn -0.026893 0.033079 -0.999091
vn 0.000000 0.066016 -0.997819
vn 0.000000 0.034654 -0.999399
vn 0.026893 0.033079 -0.999091
vn 0.000000 -1.000000 0.000000
vn 0.000000 -1.000000 0.000000
vn 0.000000 -1.000000 0.000000
vn 0.000000 -1.000000 0.000000
vn 0.000000 -1.000000 0.000000
vn 0.000000 -1.000000 0.000000
vn 0.999320 0.036880 0.000000
vn 0.999320 0.036880 0.000000
vn 0.998264 0.058895 0.000000
vn 0.998264 0.058895 0.000000
vn -0.999320 0.036881 0.000000
vn -0.999320 0.036881 0.000000
vn -0.998264 0.058896 0.000000
vn -0.998264 0.058896 0.000000
vn -0.005814 0.009042 0.999942
vn 0.000000 0.009035 0.999959
vn 0.000000 0.012290 0.999925
vn -0.020944 0.012182 0.999706
vn 0.005814 0.009042 0.999942
vn 0.020944 0.012182 0.999707
vn 0.999887 0.015058 0.000000
vn 0.999887 0.015058 0.000000
vn 0.000000 0.012269 -0.999925
vn 0.020988 0.012162 -0.999706
vn 0.005814 0.009042 -0.999942
vn 0.000000 0.009035 -0.999959
vn -0.020988 0.012162 -0.999706
vn -0.005814 0.009042 -0.999942
vn -0.999887 0.015058 0.000000
vn -0.999887 0.015058 0.000000
vn 0.000000 0.009569 0.999954
vn 0.000000 0.009569 0.999954
vn 0.000000 0.009569 0.999954
vn 0.999908 0.013572 0.000000
vn 0.999908 0.013572 0.000000
vn 0.000000 0.009569 -0.999954
vn 0.000000 0.009569 -0.999954
vn 0.000000 0.009569 -0.999954
vn -0.999908 0.013572 0.000000
vn -0.999908 0.013572 0.000000
s 1
g polySurface1 pCube9
usemtl initialShadingGroup
f 4/1/1 25/2/2 5/3/3
f 25/2/2 6/4/4 5/3/3
s 2
f 4/5/5 5/6/6 8/7/7 7/8/8
f 5/9/6 6/10/9 9/11/10 8/12/7
s 3
f 7/13/11 8/14/12 26/15/13
f 8/14/12 9/16/14 26/15/13
s 4
f 10/17/15 11/18/16 2/19/17 1/20/18
f 11/18/16 12/21/19 3/22/20 2/19/17
s 5
f 15/23/21 16/24/22 9/11/23 6/10/24
s 6
f 18/25/25 13/26/26 4/5/27 7/8/28
s 1
f 19/27/29 20/28/30 14/29/31 13/30/32
f 20/28/30 21/31/33 15/32/34 14/29/31
s 5
f 21/33/35 22/34/36 16/24/22 15/23/21
s 3
f 17/35/37 16/36/38 22/37/39 23/38/40
f 18/39/41 17/35/37 23/38/40 24/40/42
s 6
f 24/41/43 19/42/44 13/26/26 18/25/25
s 1
f 1/43/45 2/44/46 20/28/30 19/27/29
f 2/44/46 3/45/47 21/31/33 20/28/30
s 5
f 3/46/48 12/47/49 22/34/36 21/33/35
s 3
f 23/38/40 22/37/39 12/48/50 11/49/51
f 24/40/42 23/38/40 11/49/51 10/50/52
s 6
f 10/51/53 1/52/54 19/42/44 24/41/43
s 1
f 13/30/32 14/29/31 25/2/2 4/1/1
f 14/29/31 15/32/34 6/4/4 25/2/2
s 3
f 26/15/13 9/16/14 16/36/38 17/35/37
f 7/13/11 26/15/13 17/35/37 18/39/41
