# This file uses centimeters as units for non-parametric coordinates.

mtllib wooden_pile03.mtl
g default
v 0.299666 2.259825 0.109048
v 2.433810 2.259825 0.109048
v 4.567954 2.259825 0.109048
v 0.299666 2.654565 0.109048
v 2.433810 2.654565 0.109048
v 4.567954 2.654565 0.109048
v 0.299666 2.654565 -0.109048
v 2.433810 2.654565 -0.109048
v 4.567954 2.654565 -0.109048
v 0.299666 2.259825 -0.109048
v 2.433810 2.259825 -0.109048
v 4.567954 2.259825 -0.109048
vt 0.703889 0.998008
vt 0.703889 0.759523
vt 0.748001 0.759523
vt 0.748001 0.998008
vt 0.703889 0.521038
vt 0.748001 0.521038
vt 0.673503 0.998008
vt 0.673503 0.759523
vt 0.697874 0.759523
vt 0.697874 0.998008
vt 0.673503 0.521038
vt 0.697874 0.521038
vt 0.623376 0.998008
vt 0.623376 0.759523
vt 0.667488 0.759523
vt 0.667488 0.998008
vt 0.623376 0.521038
vt 0.667488 0.521038
vt 0.592990 0.998008
vt 0.592990 0.759523
vt 0.617361 0.759523
vt 0.617361 0.998008
vt 0.592990 0.521038
vt 0.617361 0.521038
vt 0.212112 0.521038
vt 0.236483 0.521038
vt 0.236483 0.565149
vt 0.212112 0.565149
vt 0.181725 0.521038
vt 0.206097 0.521038
vt 0.206097 0.565149
vt 0.181725 0.565149
vn 0.000000 0.000000 1.000000
vn 0.000000 0.000000 1.000000
vn 0.000000 0.000000 1.000000
vn 0.000000 0.000000 1.000000
vn 0.000000 0.000000 1.000000
vn 0.000000 0.000000 1.000000
vn 0.000000 1.000000 0.000000
vn 0.000000 1.000000 0.000000
vn 0.000000 1.000000 0.000000
vn 0.000000 1.000000 0.000000
vn 0.000000 1.000000 0.000000
vn 0.000000 1.000000 0.000000
vn 0.000000 0.000000 -1.000000
vn 0.000000 0.000000 -1.000000
vn 0.000000 0.000000 -1.000000
vn 0.000000 0.000000 -1.000000
vn 0.000000 0.000000 -1.000000
vn 0.000000 0.000000 -1.000000
vn 0.000000 -1.000000 0.000000
vn 0.000000 -1.000000 0.000000
vn 0.000000 -1.000000 0.000000
vn 0.000000 -1.000000 0.000000
vn 0.000000 -1.000000 0.000000
vn 0.000000 -1.000000 0.000000
vn 1.000000 0.000000 0.000000
vn 1.000000 0.000000 0.000000
vn 1.000000 0.000000 0.000000
vn 1.000000 0.000000 0.000000
vn -1.000000 0.000000 0.000000
vn -1.000000 0.000000 0.000000
vn -1.000000 0.000000 0.000000
vn -1.000000 0.000000 0.000000
s 1
g polySurface3 group4 pCube9
usemtl initialShadingGroup
f 1/1/1 2/2/2 5/3/3 4/4/4
f 2/2/2 3/5/5 6/6/6 5/3/3
s 2
f 4/7/7 5/8/8 8/9/9 7/10/10
f 5/8/8 6/11/11 9/12/12 8/9/9
s 3
f 7/13/13 8/14/14 11/15/15 10/16/16
f 8/14/14 9/17/17 12/18/18 11/15/15
s 4
f 10/19/19 11/20/20 2/21/21 1/22/22
f 11/20/20 12/23/23 3/24/24 2/21/21
s off
f 3/25/25 12/26/26 9/27/27 6/28/28
f 10/29/29 1/30/30 4/31/31 7/32/32
g default
v 0.299666 1.748804 0.109048
v 2.433810 1.748804 0.109048
v 4.567954 1.748804 0.109048
v 0.299666 2.009195 0.109048
v 2.433810 2.009195 0.109048
v 4.567954 2.009195 0.109048
v 0.299666 2.009195 -0.109048
v 2.433810 2.009195 -0.109048
v 4.567954 2.009195 -0.109048
v 0.299666 1.748804 -0.109048
v 2.433810 1.748804 -0.109048
v 4.567954 1.748804 -0.109048
vt 0.557877 0.998008
vt 0.557877 0.759523
vt 0.586975 0.759523
vt 0.586975 0.998008
vt 0.557877 0.521038
vt 0.586975 0.521038
vt 0.527490 0.998008
vt 0.527490 0.759523
vt 0.551862 0.759523
vt 0.551862 0.998008
vt 0.527490 0.521038
vt 0.551862 0.521038
vt 0.492377 0.998008
vt 0.492377 0.759523
vt 0.521475 0.759523
vt 0.521475 0.998008
vt 0.492377 0.521038
vt 0.521475 0.521038
vt 0.461990 0.998008
vt 0.461990 0.759523
vt 0.486362 0.759523
vt 0.486362 0.998008
vt 0.461990 0.521038
vt 0.486362 0.521038
vt 0.151339 0.521038
vt 0.175710 0.521038
vt 0.175710 0.550136
vt 0.151339 0.550136
vt 0.120952 0.521038
vt 0.145324 0.521038
vt 0.145324 0.550136
vt 0.120952 0.550136
vn 0.000000 0.000000 1.000000
vn 0.000000 0.000000 1.000000
vn 0.000000 0.000000 1.000000
vn 0.000000 0.000000 1.000000
vn 0.000000 0.000000 1.000000
vn 0.000000 0.000000 1.000000
vn 0.000000 1.000000 0.000000
vn 0.000000 1.000000 0.000000
vn 0.000000 1.000000 0.000000
vn 0.000000 1.000000 0.000000
vn 0.000000 1.000000 0.000000
vn 0.000000 1.000000 0.000000
vn 0.000000 0.000000 -1.000000
vn 0.000000 0.000000 -1.000000
vn 0.000000 0.000000 -1.000000
vn 0.000000 0.000000 -1.000000
vn 0.000000 0.000000 -1.000000
vn 0.000000 0.000000 -1.000000
vn 0.000000 -1.000000 0.000000
vn 0.000000 -1.000000 0.000000
vn 0.000000 -1.000000 0.000000
vn 0.000000 -1.000000 0.000000
vn 0.000000 -1.000000 0.000000
vn 0.000000 -1.000000 0.000000
vn 1.000000 0.000000 0.000000
vn 1.000000 0.000000 0.000000
vn 1.000000 0.000000 0.000000
vn 1.000000 0.000000 0.000000
vn -1.000000 0.000000 0.000000
vn -1.000000 0.000000 0.000000
vn -1.000000 0.000000 0.000000
vn -1.000000 0.000000 0.000000
s 1
g group4 pCube9 polySurface6
usemtl initialShadingGroup
f 13/33/33 14/34/34 17/35/35 16/36/36
f 14/34/34 15/37/37 18/38/38 17/35/35
s 2
f 16/39/39 17/40/40 20/41/41 19/42/42
f 17/40/40 18/43/43 21/44/44 20/41/41
s 3
f 19/45/45 20/46/46 23/47/47 22/48/48
f 20/46/46 21/49/49 24/50/50 23/47/47
s 4
f 22/51/51 23/52/52 14/53/53 13/54/54
f 23/52/52 24/55/55 15/56/56 14/53/53
s off
f 15/57/57 24/58/58 21/59/59 18/60/60
f 22/61/61 13/62/62 16/63/63 19/64/64
g default
v 4.406673 0.104290 0.209809
v 4.830504 0.104290 0.209809
v 5.254335 0.104290 0.209809
v 4.500252 3.508451 0.168231
v 4.830504 4.714085 0.096440
v 5.160757 3.508451 0.168231
v 4.500252 3.508451 -0.168231
v 4.830504 4.714085 -0.096440
v 5.160757 3.508451 -0.168231
v 4.406673 0.104290 -0.209809
v 4.830504 0.104290 -0.209809
v 5.254335 0.104290 -0.209809
v 4.443698 2.549880 0.181970
v 4.830504 2.549880 0.193783
v 5.217310 2.549880 0.181970
v 5.217310 2.549880 -0.181970
v 4.830504 2.549880 -0.193783
v 4.443698 2.549880 -0.181970
v 4.426425 1.559546 0.195882
v 4.830504 1.559546 0.195882
v 5.234583 1.559546 0.195882
v 5.234583 1.559546 -0.195882
v 4.830504 1.559546 -0.195882
v 4.426425 1.559546 -0.195882
v 4.830504 3.501961 0.176725
v 4.830504 3.498546 -0.176860
vt 0.322140 0.382398
vt 0.359045 0.381673
vt 0.359045 0.517124
vt 0.395949 0.382398
vt 0.455196 0.382398
vt 0.447174 0.517124
vt 0.425620 0.517124
vt 0.417598 0.382398
vt 0.479120 0.517124
vt 0.471098 0.382398
vt 0.508697 0.382398
vt 0.500674 0.517124
vt 0.530410 0.136718
vt 0.567314 0.001992
vt 0.567314 0.137825
vt 0.604219 0.136718
vt 0.356178 0.615762
vt 0.356178 0.568400
vt 0.403069 0.568400
vt 0.403069 0.615762
vt 0.356178 0.521038
vt 0.403069 0.521038
vt 0.469563 0.275280
vt 0.510232 0.275280
vt 0.416062 0.275280
vt 0.456732 0.275280
vt 0.313890 0.164613
vt 0.359045 0.164613
vt 0.359045 0.275280
vt 0.315820 0.275280
vt 0.404199 0.164613
vt 0.402269 0.275280
vt 0.468008 0.164613
vt 0.511787 0.164613
vt 0.567314 0.243836
vt 0.610539 0.243836
vt 0.612469 0.354504
vt 0.567314 0.354504
vt 0.524090 0.243836
vt 0.522160 0.354504
vt 0.414508 0.164613
vt 0.458286 0.164613
vt 0.311683 0.001992
vt 0.359045 0.001992
vt 0.406407 0.001992
vt 0.466452 0.001992
vt 0.513343 0.001992
vt 0.614676 0.517125
vt 0.567314 0.517125
vt 0.519952 0.517125
vt 0.412951 0.001992
vt 0.459843 0.001992
vn -0.026926 0.032927 0.999095
vn 0.000000 0.034804 0.999394
vn 0.000000 0.066090 0.997814
vn 0.026926 0.032927 0.999095
vn -0.964470 0.264192 0.000000
vn 0.000000 1.000000 0.000000
vn 0.000000 1.000000 0.000000
vn -0.964470 0.264192 0.000000
vn 0.964470 0.264192 0.000000
vn 0.964470 0.264192 0.000000
vn -0.026893 0.033079 -0.999091
vn 0.000000 0.066016 -0.997819
vn 0.000000 0.034654 -0.999399
vn 0.026893 0.033079 -0.999091
vn 0.000000 -1.000000 0.000000
vn 0.000000 -1.000000 0.000000
vn 0.000000 -1.000000 0.000000
vn 0.000000 -1.000000 0.000000
vn 0.000000 -1.000000 0.000000
vn 0.000000 -1.000000 0.000000
vn 0.999320 0.036880 0.000000
vn 0.999320 0.036880 0.000000
vn 0.998264 0.058896 0.000000
vn 0.998264 0.058896 0.000000
vn -0.999320 0.036881 0.000000
vn -0.999320 0.036881 0.000000
vn -0.998264 0.058895 0.000000
vn -0.998264 0.058895 0.000000
vn -0.005814 0.009042 0.999942
vn 0.000000 0.009035 0.999959
vn 0.000000 0.012290 0.999925
vn -0.020944 0.012182 0.999706
vn 0.005814 0.009042 0.999942
vn 0.020944 0.012182 0.999707
vn 0.999887 0.015058 0.000000
vn 0.999887 0.015058 0.000000
vn 0.000000 0.012269 -0.999925
vn 0.020988 0.012162 -0.999706
vn 0.005814 0.009042 -0.999942
vn 0.000000 0.009035 -0.999959
vn -0.020988 0.012162 -0.999706
vn -0.005814 0.009042 -0.999942
vn -0.999887 0.015058 0.000000
vn -0.999887 0.015058 0.000000
vn 0.000000 0.009569 0.999954
vn 0.000000 0.009569 0.999954
vn 0.000000 0.009569 0.999954
vn 0.999908 0.013572 0.000000
vn 0.999908 0.013572 0.000000
vn 0.000000 0.009569 -0.999954
vn 0.000000 0.009569 -0.999954
vn 0.000000 0.009569 -0.999954
vn -0.999908 0.013572 0.000000
vn -0.999908 0.013572 0.000000
s 1
g group4 pCube9 polySurface4
usemtl initialShadingGroup
f 28/65/65 49/66/66 29/67/67
f 49/66/66 30/68/68 29/67/67
s 2
f 28/69/69 29/70/70 32/71/71 31/72/72
f 29/73/70 30/74/73 33/75/74 32/76/71
s 3
f 31/77/75 32/78/76 50/79/77
f 32/78/76 33/80/78 50/79/77
s 4
f 34/81/79 35/82/80 26/83/81 25/84/82
f 35/82/80 36/85/83 27/86/84 26/83/81
s 5
f 39/87/85 40/88/86 33/75/87 30/74/88
s 6
f 42/89/89 37/90/90 28/69/91 31/72/92
s 1
f 43/91/93 44/92/94 38/93/95 37/94/96
f 44/92/94 45/95/97 39/96/98 38/93/95
s 5
f 45/97/99 46/98/100 40/88/86 39/87/85
s 3
f 41/99/101 40/100/102 46/101/103 47/102/104
f 42/103/105 41/99/101 47/102/104 48/104/106
s 6
f 48/105/107 43/106/108 37/90/90 42/89/89
s 1
f 25/107/109 26/108/110 44/92/94 43/91/93
f 26/108/110 27/109/111 45/95/97 44/92/94
s 5
f 27/110/112 36/111/113 46/98/100 45/97/99
s 3
f 47/102/104 46/101/103 36/112/114 35/113/115
f 48/104/106 47/102/104 35/113/115 34/114/116
s 6
f 34/115/117 25/116/118 43/106/108 48/105/107
s 1
f 37/94/96 38/93/95 49/66/66 28/65/65
f 38/93/95 39/96/98 30/68/68 49/66/66
s 3
f 50/79/77 33/80/78 40/100/102 41/99/101
f 31/77/75 50/79/77 41/99/101 42/103/105
