# This file uses centimeters as units for non-parametric coordinates.

mtllib stairs2.mtl
g default
v 2.687546 0.304306 -1.595971
v 2.687546 0.512604 -1.595971
v 2.687546 0.512604 -1.262638
v 2.687546 0.721008 -1.262637
v 2.687546 0.721008 -0.929305
v 2.687546 0.929306 -0.929305
v 2.687546 0.929306 -0.595972
v 2.687546 1.137604 -0.595972
v 2.687546 1.137604 -0.262638
v 2.687546 1.346008 -0.262638
v 2.687546 1.346008 0.070695
v 2.687546 1.554306 0.070695
v 2.687546 1.554306 0.404028
v 2.687546 1.762604 0.404028
v 2.687546 1.762604 0.737362
v 2.687546 1.971008 0.737362
v 2.687546 1.971008 1.070696
v 2.687546 2.179306 1.070696
v 2.687546 2.179306 1.404029
v 2.687546 2.387604 1.404029
v 2.687546 2.387604 1.737363
v 2.687546 2.596008 1.737363
v 2.687546 2.596008 2.070696
v -2.312454 0.512604 -1.262638
v -2.312454 0.512604 -1.595971
v -2.312454 0.304306 -1.595971
v -2.312454 0.721008 -0.929305
v -2.312454 0.721008 -1.262637
v -2.312454 0.929306 -0.595972
v -2.312454 0.929306 -0.929305
v -2.312454 1.137604 -0.262638
v -2.312454 1.137604 -0.595972
v -2.312454 1.346008 0.070695
v -2.312454 1.346008 -0.262638
v -2.312454 1.554306 0.404028
v -2.312454 1.554306 0.070695
v -2.312454 1.762604 0.737362
v -2.312454 1.762604 0.404028
v -2.312454 1.971008 1.070696
v -2.312454 1.971008 0.737362
v -2.312454 2.179306 1.404029
v -2.312454 2.179306 1.070696
v -2.312454 2.387604 1.737363
v -2.312454 2.387604 1.404029
v -2.312454 2.596008 2.070696
v -2.312454 2.596008 1.737363
v -2.312454 0.096008 -1.929304
v 2.687546 0.096008 -1.929304
v -2.312454 0.304306 -1.929304
v 2.687546 0.304306 -1.929304
v 2.687546 0.096008 -1.595971
v 2.687546 0.096008 -1.262637
v 2.687546 0.096008 -0.929305
v 2.687546 0.096008 -0.595972
v 2.687546 0.096008 -0.262638
v 2.687546 0.096008 0.070695
v 2.687546 0.096008 0.404028
v 2.687546 0.096008 0.737362
v 2.687546 0.096008 1.070696
v 2.687546 0.096008 1.404029
v 2.687546 0.096008 1.737363
v 2.687546 0.096008 2.070696
v -2.312454 0.096008 -1.595971
v -2.312454 0.096008 -1.262637
v -2.312454 0.096008 -0.929305
v -2.312454 0.096008 -0.595972
v -2.312454 0.096008 -0.262638
v -2.312454 0.096008 0.070695
v -2.312454 0.096008 0.404028
v -2.312454 0.096008 0.737362
v -2.312454 0.096008 1.070696
v -2.312454 0.096008 1.404029
v -2.312454 0.096008 1.737363
v -2.312454 0.096008 2.070696
vt 0.271838 0.533333
vt 0.292668 0.533333
vt 0.292668 0.566667
vt 0.251008 0.566667
vt 0.251008 0.533333
vt 0.313508 0.600000
vt 0.251008 0.600000
vt 0.271838 0.500000
vt 0.251008 0.500000
vt 0.313508 0.566667
vt 0.334338 0.633333
vt 0.251008 0.633333
vt 0.334338 0.600000
vt 0.355168 0.666667
vt 0.251008 0.666667
vt 0.355168 0.633333
vt 0.376008 0.700000
vt 0.251008 0.700000
vt 0.376008 0.666667
vt 0.396838 0.733333
vt 0.251008 0.733333
vt 0.396838 0.700000
vt 0.417668 0.766667
vt 0.251008 0.766667
vt 0.417668 0.733333
vt 0.438508 0.800000
vt 0.251008 0.800000
vt 0.438508 0.766667
vt 0.459338 0.833333
vt 0.251008 0.833333
vt 0.459338 0.800000
vt 0.480168 0.866667
vt 0.251008 0.866667
vt 0.480168 0.833333
vt 0.501008 0.900000
vt 0.251008 0.900000
vt 0.501008 0.866667
vt 0.041660 0.833333
vt 0.041660 0.866667
vt 0.020830 0.866667
vt 0.000000 0.866667
vt 0.000000 0.833333
vt 0.020830 0.900000
vt 0.000000 0.900000
vt 0.062500 0.800000
vt 0.000000 0.800000
vt 0.062500 0.833333
vt 0.083330 0.766667
vt 0.000000 0.766667
vt 0.083330 0.800000
vt 0.104160 0.733333
vt 0.000000 0.733333
vt 0.104160 0.766667
vt 0.125000 0.700000
vt 0.000000 0.700000
vt 0.125000 0.733333
vt 0.145830 0.666667
vt 0.000000 0.666667
vt 0.145830 0.700000
vt 0.166660 0.633333
vt 0.000000 0.633333
vt 0.166660 0.666667
vt 0.187500 0.600000
vt 0.000000 0.600000
vt 0.187500 0.633333
vt 0.208330 0.566667
vt 0.000000 0.566667
vt 0.208330 0.600000
vt 0.229160 0.533333
vt 0.000000 0.533333
vt 0.229160 0.566667
vt 0.250000 0.500000
vt 0.000000 0.500000
vt 0.250000 0.533333
vt 0.825285 0.500000
vt 0.825285 0.000000
vt 0.858618 0.000000
vt 0.858618 0.500000
vt 0.722600 0.500000
vt 0.722600 0.000000
vt 0.755933 0.000000
vt 0.755933 0.500000
vt 0.859514 0.500000
vt 0.859514 0.000000
vt 0.892847 0.000000
vt 0.892847 0.500000
vt 0.791057 0.500000
vt 0.791057 0.000000
vt 0.824390 0.000000
vt 0.824390 0.500000
vt 0.756828 0.500000
vt 0.756828 0.000000
vt 0.790162 0.000000
vt 0.790162 0.500000
vt 0.893742 0.500000
vt 0.893742 0.000000
vt 0.927075 0.000000
vt 0.927075 0.500000
vt 0.927970 0.500000
vt 0.927970 0.000000
vt 0.961304 0.000000
vt 0.961304 0.500000
vt 0.654143 0.500000
vt 0.654143 0.000000
vt 0.687477 0.000000
vt 0.687477 0.500000
vt 0.502017 1.000000
vt 0.502017 0.500000
vt 0.535350 0.500000
vt 0.535350 1.000000
vt 0.536245 1.000000
vt 0.536245 0.500000
vt 0.569578 0.500000
vt 0.569578 1.000000
vt 0.688371 0.500000
vt 0.688371 0.000000
vt 0.721705 0.000000
vt 0.721705 0.500000
vt 0.570474 1.000000
vt 0.570474 0.500000
vt 0.603807 0.500000
vt 0.603807 1.000000
vt 0.000000 0.000000
vt 0.033333 0.000000
vt 0.033333 0.500000
vt 0.000000 0.500000
vt 0.066667 0.000000
vt 0.066667 0.500000
vt 0.100000 0.000000
vt 0.100000 0.500000
vt 0.133333 0.000000
vt 0.133333 0.500000
vt 0.166667 0.000000
vt 0.166667 0.500000
vt 0.200000 0.000000
vt 0.200000 0.500000
vt 0.233333 0.000000
vt 0.233333 0.500000
vt 0.266667 0.000000
vt 0.266667 0.500000
vt 0.300000 0.000000
vt 0.300000 0.500000
vt 0.333333 0.000000
vt 0.333333 0.500000
vt 0.366667 0.000000
vt 0.366667 0.500000
vt 0.400000 0.000000
vt 0.400000 0.500000
vt 0.810072 1.000000
vt 0.810072 0.500000
vt 0.830902 0.500000
vt 0.830902 1.000000
vt 0.718797 1.000000
vt 0.718797 0.500000
vt 0.739627 0.500000
vt 0.739627 1.000000
vt 0.962199 0.500000
vt 0.962199 0.000000
vt 0.983039 0.000000
vt 0.983039 0.500000
vt 0.832891 1.000000
vt 0.832891 0.500000
vt 0.853721 0.500000
vt 0.853721 1.000000
vt 0.673159 1.000000
vt 0.673159 0.500000
vt 0.693989 0.500000
vt 0.693989 1.000000
vt 0.604702 1.000000
vt 0.604702 0.500000
vt 0.625543 0.500000
vt 0.625543 1.000000
vt 0.764435 1.000000
vt 0.764435 0.500000
vt 0.785264 0.500000
vt 0.785264 1.000000
vt 0.695978 1.000000
vt 0.695978 0.500000
vt 0.716808 0.500000
vt 0.716808 1.000000
vt 0.627521 1.000000
vt 0.627521 0.500000
vt 0.648362 0.500000
vt 0.648362 1.000000
vt 0.787254 1.000000
vt 0.787254 0.500000
vt 0.808083 0.500000
vt 0.808083 1.000000
vt 0.741616 1.000000
vt 0.741616 0.500000
vt 0.762445 0.500000
vt 0.762445 1.000000
vt 0.650340 1.000000
vt 0.650340 0.500000
vt 0.671180 0.500000
vt 0.671180 1.000000
vt 0.653135 0.000000
vt 0.653135 0.500000
vt 0.403135 0.500000
vt 0.403135 0.000000
vn 1.000000 0.000000 0.000000
vn 1.000000 0.000000 0.000000
vn 1.000000 0.000000 0.000000
vn 1.000000 0.000000 0.000000
vn 1.000000 0.000000 0.000000
vn 1.000000 0.000000 0.000000
vn 1.000000 0.000000 0.000000
vn 1.000000 0.000000 0.000000
vn 1.000000 0.000000 0.000000
vn 1.000000 0.000000 0.000000
vn 1.000000 0.000000 0.000000
vn 1.000000 0.000000 0.000000
vn 1.000000 0.000000 0.000000
vn 1.000000 0.000000 0.000000
vn 1.000000 0.000000 0.000000
vn 1.000000 0.000000 0.000000
vn 1.000000 0.000000 0.000000
vn 1.000000 0.000000 0.000000
vn 1.000000 0.000000 0.000000
vn 1.000000 0.000000 0.000000
vn 1.000000 0.000000 0.000000
vn 1.000000 0.000000 0.000000
vn 1.000000 0.000000 0.000000
vn 1.000000 0.000000 0.000000
vn 1.000000 -0.000000 0.000000
vn 1.000000 0.000000 0.000000
vn 1.000000 -0.000000 0.000000
vn 1.000000 -0.000000 0.000000
vn 1.000000 0.000000 0.000000
vn 1.000000 -0.000000 0.000000
vn 1.000000 0.000000 0.000000
vn 1.000000 0.000000 0.000000
vn 1.000000 0.000000 0.000000
vn -1.000000 0.000000 0.000000
vn -1.000000 0.000000 0.000000
vn -1.000000 0.000000 0.000000
vn -1.000000 0.000000 0.000000
vn -1.000000 0.000000 0.000000
vn -1.000000 0.000000 0.000000
vn -1.000000 0.000000 0.000000
vn -1.000000 0.000000 0.000000
vn -1.000000 0.000000 0.000000
vn -1.000000 0.000000 0.000000
vn -1.000000 0.000000 0.000000
vn -1.000000 0.000000 0.000000
vn -1.000000 0.000000 0.000000
vn -1.000000 0.000000 0.000000
vn -1.000000 0.000000 0.000000
vn -1.000000 0.000000 0.000000
vn -1.000000 0.000000 0.000000
vn -1.000000 0.000000 0.000000
vn -1.000000 0.000000 0.000000
vn -1.000000 0.000000 0.000000
vn -1.000000 0.000000 0.000000
vn -1.000000 -0.000000 0.000000
vn -1.000000 0.000000 0.000000
vn -1.000000 -0.000000 0.000000
vn -1.000000 -0.000000 0.000000
vn -1.000000 0.000000 0.000000
vn -1.000000 -0.000000 0.000000
vn -1.000000 -0.000000 0.000000
vn -1.000000 0.000000 0.000000
vn -1.000000 -0.000000 0.000000
vn -1.000000 0.000000 0.000000
vn -1.000000 0.000000 0.000000
vn -1.000000 0.000000 0.000000
vn 0.000000 0.000000 -1.000000
vn 0.000000 0.000000 -1.000000
vn 0.000000 0.000000 -1.000000
vn 0.000000 0.000000 -1.000000
vn 0.000000 1.000000 0.000000
vn 0.000000 1.000000 0.000000
vn 0.000000 1.000000 0.000000
vn 0.000000 1.000000 0.000000
vn 0.000000 0.000000 -1.000000
vn 0.000000 0.000000 -1.000000
vn 0.000000 0.000000 -1.000000
vn 0.000000 0.000000 -1.000000
vn 0.000000 1.000000 0.000000
vn 0.000000 1.000000 0.000000
vn 0.000000 1.000000 0.000000
vn 0.000000 1.000000 0.000000
vn 0.000000 0.000001 -1.000000
vn 0.000000 0.000001 -1.000000
vn 0.000000 0.000001 -1.000000
vn 0.000000 0.000001 -1.000000
vn 0.000000 1.000000 0.000000
vn 0.000000 1.000000 0.000000
vn 0.000000 1.000000 0.000000
vn 0.000000 1.000000 0.000000
vn 0.000000 0.000000 -1.000000
vn 0.000000 0.000000 -1.000000
vn 0.000000 0.000000 -1.000000
vn 0.000000 0.000000 -1.000000
vn 0.000000 1.000000 0.000000
vn 0.000000 1.000000 0.000000
vn 0.000000 1.000000 0.000000
vn 0.000000 1.000000 0.000000
vn 0.000000 0.000000 -1.000000
vn 0.000000 0.000000 -1.000000
vn 0.000000 0.000000 -1.000000
vn 0.000000 0.000000 -1.000000
vn 0.000000 1.000000 0.000000
vn 0.000000 1.000000 0.000000
vn 0.000000 1.000000 0.000000
vn 0.000000 1.000000 0.000000
vn 0.000000 0.000000 -1.000000
vn 0.000000 0.000000 -1.000000
vn 0.000000 0.000000 -1.000000
vn 0.000000 0.000000 -1.000000
vn 0.000000 1.000000 0.000000
vn 0.000000 1.000000 0.000000
vn 0.000000 1.000000 0.000000
vn 0.000000 1.000000 0.000000
vn 0.000000 0.000000 -1.000000
vn 0.000000 0.000000 -1.000000
vn 0.000000 0.000000 -1.000000
vn 0.000000 0.000000 -1.000000
vn 0.000000 1.000000 0.000000
vn 0.000000 1.000000 0.000000
vn 0.000000 1.000000 0.000000
vn 0.000000 1.000000 0.000000
vn 0.000000 0.000000 -1.000000
vn 0.000000 0.000000 -1.000000
vn 0.000000 0.000000 -1.000000
vn 0.000000 0.000000 -1.000000
vn 0.000000 1.000000 0.000000
vn 0.000000 1.000000 0.000000
vn 0.000000 1.000000 0.000000
vn 0.000000 1.000000 0.000000
vn 0.000000 0.000000 -1.000000
vn 0.000000 0.000000 -1.000000
vn 0.000000 0.000000 -1.000000
vn 0.000000 0.000000 -1.000000
vn 0.000000 1.000000 0.000000
vn 0.000000 1.000000 0.000000
vn 0.000000 1.000000 0.000000
vn 0.000000 1.000000 0.000000
vn 0.000000 -0.000001 -1.000000
vn 0.000000 -0.000001 -1.000000
vn 0.000000 -0.000001 -1.000000
vn 0.000000 -0.000001 -1.000000
vn 0.000000 1.000000 0.000000
vn 0.000000 1.000000 0.000000
vn 0.000000 1.000000 0.000000
vn 0.000000 1.000000 0.000000
vn 0.000000 -0.000001 -1.000000
vn 0.000000 -0.000001 -1.000000
vn 0.000000 -0.000001 -1.000000
vn 0.000000 -0.000001 -1.000000
vn 0.000000 1.000000 0.000000
vn 0.000000 1.000000 0.000000
vn 0.000000 1.000000 0.000000
vn 0.000000 1.000000 0.000000
vn 0.000000 -0.000001 -1.000000
vn 0.000000 -0.000001 -1.000000
vn 0.000000 -0.000001 -1.000000
vn 0.000000 -0.000001 -1.000000
vn 0.000000 1.000000 0.000000
vn 0.000000 1.000000 0.000000
vn 0.000000 1.000000 0.000000
vn 0.000000 1.000000 0.000000
vn 1.000000 0.000000 0.000000
vn 1.000000 0.000000 0.000000
vn 1.000000 0.000000 0.000000
vn 1.000000 0.000000 0.000000
vn 1.000000 0.000000 0.000000
vn 1.000000 0.000000 0.000000
vn 1.000000 0.000000 0.000000
vn 1.000000 0.000000 0.000000
vn 1.000000 0.000000 0.000000
vn 1.000000 0.000000 0.000000
vn 1.000000 0.000000 0.000000
vn 1.000000 0.000000 0.000000
vn 1.000000 0.000000 0.000000
vn 1.000000 0.000000 0.000000
vn 1.000000 0.000000 0.000000
vn 1.000000 0.000000 0.000000
vn 1.000000 0.000000 0.000000
vn 1.000000 0.000000 0.000000
vn 1.000000 0.000000 0.000000
vn 1.000000 0.000000 0.000000
vn 1.000000 -0.000000 0.000000
vn 1.000000 -0.000000 0.000000
vn 1.000000 -0.000000 0.000000
vn 1.000000 -0.000000 0.000000
vn 1.000000 -0.000000 0.000000
vn 1.000000 -0.000000 0.000000
vn 1.000000 -0.000000 0.000000
vn 1.000000 -0.000000 0.000000
vn -1.000000 0.000000 0.000000
vn -1.000000 0.000000 0.000000
vn -1.000000 0.000000 0.000000
vn -1.000000 0.000000 0.000000
vn -1.000000 0.000000 0.000000
vn -1.000000 0.000000 0.000000
vn -1.000000 0.000000 0.000000
vn -1.000000 0.000000 0.000000
vn -1.000000 0.000000 0.000000
vn -1.000000 0.000000 0.000000
vn -1.000000 0.000000 0.000000
vn -1.000000 0.000000 0.000000
vn -1.000000 0.000000 0.000000
vn -1.000000 0.000000 0.000000
vn -1.000000 0.000000 0.000000
vn -1.000000 0.000000 0.000000
vn -1.000000 0.000000 0.000000
vn -1.000000 0.000000 0.000000
vn -1.000000 -0.000000 0.000000
vn -1.000000 -0.000000 0.000000
vn -1.000000 -0.000000 0.000000
vn -1.000000 -0.000000 0.000000
vn -1.000000 -0.000000 0.000000
vn -1.000000 -0.000000 0.000000
vn -1.000000 0.000000 0.000000
vn -1.000000 0.000000 0.000000
vn -1.000000 0.000000 0.000000
vn -1.000000 0.000000 0.000000
vn 0.000000 0.000000 1.000000
vn 0.000000 0.000000 1.000000
vn 0.000000 0.000000 1.000000
vn 0.000000 0.000000 1.000000
vn 0.000000 -1.000000 0.000000
vn 0.000000 -1.000000 0.000000
vn 0.000000 -1.000000 0.000000
vn 0.000000 -1.000000 0.000000
vn 0.000000 -1.000000 0.000000
vn 0.000000 -1.000000 0.000000
vn 0.000000 -1.000000 0.000000
vn 0.000000 -1.000000 0.000000
vn 0.000000 -1.000000 0.000000
vn 0.000000 -1.000000 0.000000
vn 0.000000 -1.000000 0.000000
vn 0.000000 -1.000000 0.000000
vn 0.000000 -1.000000 0.000000
vn 0.000000 -1.000000 0.000000
vn 0.000000 -1.000000 0.000000
vn 0.000000 -1.000000 0.000000
vn 0.000000 -1.000000 0.000000
vn 0.000000 -1.000000 0.000000
vn 0.000000 -1.000000 0.000000
vn 0.000000 -1.000000 0.000000
vn 0.000000 -1.000000 0.000000
vn 0.000000 -1.000000 0.000000
vn 0.000000 -1.000000 0.000000
vn 0.000000 -1.000000 0.000000
vn 0.000000 -1.000000 0.000000
vn 0.000000 -1.000000 0.000000
vn 0.000000 -1.000000 0.000000
vn 0.000000 -1.000000 0.000000
s 1
g Stairs_3
usemtl initialShadingGroup
f 1/1/1 2/2/2 3/3/3
s 2
f 3/3/4 4/10/5 5/6/6
s 3
f 5/6/7 6/13/8 7/11/9
s 4
f 7/11/10 8/16/11 9/14/12
s 5
f 9/14/13 10/19/14 11/17/15
s 6
f 11/17/16 12/22/17 13/20/18
s 7
f 13/20/19 14/25/20 15/23/21
s 8
f 15/23/22 16/28/23 17/26/24
s 9
f 17/26/25 18/31/26 19/29/27
s 10
f 19/29/28 20/34/29 21/32/30
s off
f 21/32/31 22/37/32 23/35/33
s 11
f 24/38/34 25/39/35 26/40/36
s 12
f 27/45/37 28/47/38 24/38/39
s 13
f 29/48/40 30/50/41 27/45/42
s 14
f 31/51/43 32/53/44 29/48/45
s 15
f 33/54/46 34/56/47 31/51/48
s 16
f 35/57/49 36/59/50 33/54/51
s 17
f 37/60/52 38/62/53 35/57/54
s 18
f 39/63/55 40/65/56 37/60/57
s 19
f 41/66/58 42/68/59 39/63/60
s 20
f 43/69/61 44/71/62 41/66/63
s off
f 45/72/64 46/74/65 43/69/66
f 49/149/67 50/150/68 48/151/69 47/152/70
f 26/75/71 1/76/72 50/77/73 49/78/74
f 25/153/75 2/154/76 1/155/77 26/156/78
f 24/79/79 3/80/80 2/81/81 25/82/82
f 28/157/83 4/158/84 3/159/85 24/160/86
f 27/83/87 5/84/88 4/85/89 28/86/90
f 30/161/91 6/162/92 5/163/93 27/164/94
f 29/87/95 7/88/96 6/89/97 30/90/98
f 32/165/99 8/166/100 7/167/101 29/168/102
f 31/91/103 9/92/104 8/93/105 32/94/106
f 34/169/107 10/170/108 9/171/109 31/172/110
f 33/95/111 11/96/112 10/97/113 34/98/114
f 36/173/115 12/174/116 11/175/117 33/176/118
f 35/99/119 13/100/120 12/101/121 36/102/122
f 38/177/123 14/178/124 13/179/125 35/180/126
f 37/103/127 15/104/128 14/105/129 38/106/130
f 40/181/131 16/182/132 15/183/133 37/184/134
f 39/107/135 17/108/136 16/109/137 40/110/138
f 42/185/139 18/186/140 17/187/141 39/188/142
f 41/111/143 19/112/144 18/113/145 42/114/146
f 44/189/147 20/190/148 19/191/149 41/192/150
f 43/115/151 21/116/152 20/117/153 44/118/154
f 46/193/155 22/194/156 21/195/157 43/196/158
f 45/119/159 23/120/160 22/121/161 46/122/162
f 50/8/163 1/1/164 51/5/165 48/9/166
s 1
f 1/1/1 3/3/3 52/4/167 51/5/168
s 2
f 3/3/4 5/6/6 53/7/169 52/4/170
s 3
f 5/6/7 7/11/9 54/12/171 53/7/172
s 4
f 7/11/10 9/14/12 55/15/173 54/12/174
s 5
f 9/14/13 11/17/15 56/18/175 55/15/176
s 6
f 11/17/16 13/20/18 57/21/177 56/18/178
s 7
f 13/20/19 15/23/21 58/24/179 57/21/180
s 8
f 15/23/22 17/26/24 59/27/181 58/24/182
s 9
f 17/26/25 19/29/27 60/30/183 59/27/184
s 10
f 19/29/28 21/32/30 61/33/185 60/30/186
s off
f 21/32/187 23/35/188 62/36/189 61/33/190
f 26/40/191 49/43/192 47/44/193 63/41/194
s 11
f 24/38/34 26/40/36 63/41/195 64/42/196
s 12
f 27/45/37 24/38/39 64/42/197 65/46/198
s 13
f 29/48/40 27/45/42 65/46/199 66/49/200
s 14
f 31/51/43 29/48/45 66/49/201 67/52/202
s 15
f 33/54/46 31/51/48 67/52/203 68/55/204
s 16
f 35/57/49 33/54/51 68/55/205 69/58/206
s 17
f 37/60/52 35/57/54 69/58/207 70/61/208
s 18
f 39/63/55 37/60/57 70/61/209 71/64/210
s 19
f 41/66/58 39/63/60 71/64/211 72/67/212
s 20
f 43/69/61 41/66/63 72/67/213 73/70/214
s off
f 45/72/215 43/69/216 73/70/217 74/73/218
f 23/197/219 45/198/220 74/199/221 62/200/222
f 48/123/223 51/124/224 63/125/225 47/126/226
s 21
f 51/124/227 52/127/228 64/128/229 63/125/230
f 52/127/228 53/129/231 65/130/232 64/128/229
f 53/129/231 54/131/233 66/132/234 65/130/232
f 54/131/233 55/133/235 67/134/236 66/132/234
f 55/133/235 56/135/237 68/136/238 67/134/236
f 56/135/237 57/137/239 69/138/240 68/136/238
f 57/137/239 58/139/241 70/140/242 69/138/240
f 58/139/241 59/141/243 71/142/244 70/140/242
f 59/141/243 60/143/245 72/144/246 71/142/244
f 60/143/245 61/145/247 73/146/248 72/144/246
f 61/145/247 62/147/249 74/148/250 73/146/248
