# This file uses centimeters as units for non-parametric coordinates.

mtllib low_wood_indicator.mtl
g default
v -2.494914 3.804568 0.742211
v 2.287613 4.232856 0.742211
v -2.203977 4.790477 0.742211
v 2.896392 5.247228 0.742211
v -2.665461 5.709004 0.742211
v 2.117066 6.137292 0.742211
v -2.665461 5.709004 0.303649
v 2.117066 6.137292 0.303649
v -2.203977 4.790477 0.303649
v 2.896392 5.247228 0.303649
v -2.494914 3.804568 0.303649
v 2.287613 4.232856 0.303649
v -0.446088 0.081404 0.358017
v 0.446088 0.081404 0.358017
v -0.446088 6.566512 0.358017
v 0.446088 6.566512 0.358017
v -0.446088 6.566512 -0.130744
v 0.446088 6.566512 -0.130744
v -0.446088 0.081404 -0.130744
v 0.446088 0.081404 -0.130744
vt 0.948880 0.609570
vt 0.998008 0.609570
vt 0.998008 0.720011
vt 0.948880 0.720011
vt 0.998008 0.822905
vt 0.948880 0.822905
vt 0.216572 0.001643
vt 0.271323 0.001643
vt 0.271323 0.728106
vt 0.216572 0.728106
vt 0.278938 0.001643
vt 0.333689 0.001643
vt 0.333689 0.728106
vt 0.278938 0.728106
vt 0.610260 0.624683
vt 0.610260 0.088943
vt 0.659388 0.088943
vt 0.659388 0.624683
vt 0.610260 0.001643
vt 0.659388 0.001643
vt 0.935735 0.605578
vt 0.935735 0.069838
vt 0.984863 0.069838
vt 0.984863 0.605578
vt 0.935735 0.001643
vt 0.984863 0.001643
vt 0.887994 0.728617
vt 0.887994 0.628675
vt 0.942745 0.628675
vt 0.942745 0.728617
vt 0.827107 0.728616
vt 0.827107 0.628675
vt 0.881859 0.628675
vt 0.881859 0.728616
vt 0.366440 0.620664
vt 0.369048 0.082786
vt 0.476520 0.005247
vt 0.473738 0.578871
vt 0.583235 0.083825
vt 0.580627 0.621702
vt 0.686066 0.620720
vt 0.688259 0.082841
vt 0.795671 0.005219
vt 0.793332 0.578845
vt 0.902446 0.083714
vt 0.900253 0.621594
vt 0.001992 0.001643
vt 0.101934 0.001643
vt 0.101934 0.728106
vt 0.001992 0.728106
vt 0.109379 0.001643
vt 0.209321 0.001643
vt 0.209321 0.728106
vt 0.109379 0.728106
vn -0.059400 -0.478461 0.876098
vn 0.089347 -0.333894 0.938367
vn 0.145406 0.013022 0.989286
vn -0.070851 -0.006345 0.997467
vn 0.028599 0.344456 0.938367
vn -0.143468 0.460293 0.876098
vn 0.028599 0.344456 -0.938367
vn -0.143468 0.460293 -0.876098
vn 0.145406 0.013022 -0.989286
vn -0.070851 -0.006345 -0.997467
vn 0.089347 -0.333894 -0.938367
vn -0.059400 -0.478461 -0.876098
vn -0.479411 -0.065954 0.875109
vn 0.479411 -0.065954 0.875109
vn 0.479411 0.065954 0.875109
vn -0.479411 0.065954 0.875109
vn 0.479411 0.065954 -0.875109
vn -0.479411 0.065954 -0.875109
vn 0.479411 -0.065954 -0.875109
vn -0.479411 -0.065954 -0.875109
s 1
g pCube2
usemtl initialShadingGroup
f 1/35/1 2/36/2 4/37/3 3/38/4
f 3/38/4 4/37/3 6/39/5 5/40/6
f 5/15/6 6/16/5 8/17/7 7/18/8
f 7/41/8 8/42/7 10/43/9 9/44/10
f 9/44/10 10/43/9 12/45/11 11/46/12
f 11/21/12 12/22/11 2/23/2 1/24/1
f 2/23/2 12/22/11 10/25/9 4/26/3
f 4/19/3 10/20/9 8/17/7 6/16/5
f 11/1/12 1/2/1 3/3/4 9/4/10
f 9/4/10 3/3/4 5/5/6 7/6/8
s 2
f 13/47/13 14/48/14 16/49/15 15/50/16
f 15/27/16 16/28/15 18/29/17 17/30/18
f 17/51/18 18/52/17 20/53/19 19/54/20
f 19/31/20 20/32/19 14/33/14 13/34/13
f 14/7/14 20/8/19 18/9/17 16/10/15
f 19/11/20 13/12/13 15/13/16 17/14/18
