# Exported from ProBuilder
# http://www.procore3d.com/probuilder
# 3/24/2019 5:15:07 PM

mtllib ./Bridge_(1).mtl
o Bridge (1)

g Bridge (1)
v -52.69 18 69.89
v -122.69 18 69.89
v -52.69 20 69.89
v -122.69 20 69.89
v -122.69 18 49.89
v -52.69 18 49.89
v -122.69 20 49.89
v -52.69 20 49.89
v -122.69 18 50.33905
v -122.69 18 49.89
v -122.69 20 49.89
v -122.69 20 50.33905
v -52.69 18 49.89
v -52.69 18 50.33905
v -52.69 20 50.33905
v -52.69 20 49.89
v -122.69 21.2 50.33905
v -122.69 21.2 49.89
v -52.69 21.2 49.89
v -52.69 21.2 50.33905
v -52.69 18 49.89
v -122.69 18 49.89
v -122.69 18 50.33905
v -52.69 18 50.33905
v -122.69 18 69.89
v -122.69 18 69.37852
v -122.69 20 69.37852
v -122.69 20 69.89
v -52.69 18 69.89
v -52.69 20 69.89
v -52.69 20 69.37852
v -52.69 18 69.37852
v -52.69 21.2 69.37852
v -52.69 21.2 69.89
v -122.69 21.2 69.89
v -122.69 21.2 69.37852
v -122.69 18 69.37852
v -122.69 18 69.89
v -52.69 18 69.89
v -52.69 18 69.37852
v -122.69 18 69.37852
v -122.69 18 68.90457
v -122.69 20 68.90457
v -122.69 20 69.37852
v -52.69 18 69.37852
v -52.69 20 69.37852
v -52.69 20 68.90457
v -52.69 18 68.90457
v -52.69 21 68.90457
v -52.69 21 69.37852
v -122.69 21 69.37852
v -122.69 21 68.90457
v -122.69 18 68.90457
v -122.69 18 69.37852
v -52.69 18 69.37852
v -52.69 18 68.90457
v -122.69 18 68.90457
v -122.69 18 50.8983
v -122.69 20 50.8983
v -122.69 20 68.90457
v -122.69 18 50.8983
v -122.69 18 50.33905
v -122.69 20 50.33905
v -122.69 20 50.8983
v -52.69 18 68.90457
v -52.69 20 68.90457
v -52.69 20 50.8983
v -52.69 18 50.8983
v -52.69 20 50.8983
v -52.69 20 50.33905
v -52.69 18 50.33905
v -52.69 18 50.8983
v -122.69 21 50.33905
v -52.69 21 50.33905
v -52.69 21 50.8983
v -122.69 21 50.8983
v -52.69 20 50.8983
v -52.69 20 68.90457
v -122.69 20 68.90457
v -122.69 20 50.8983
v -122.69 18 50.33905
v -122.69 18 50.8983
v -52.69 18 50.8983
v -52.69 18 50.33905
v -122.69 18 50.8983
v -122.69 18 68.90457
v -52.69 18 68.90457
v -52.69 18 50.8983
v -122.69 20 49.89
v -52.69 20 49.89
v -122.69 21.2 49.89
v -52.69 21.2 49.89
v -52.69 20 49.89
v -52.69 20 50.33905
v -52.69 21.2 49.89
v -52.69 21.2 50.33905
v -122.69 20 50.33905
v -122.69 20 49.89
v -122.69 21.2 50.33905
v -122.69 21.2 49.89
v -52.69 20 50.33905
v -122.69 20 50.33905
v -52.69 21.2 50.33905
v -122.69 21.2 50.33905
v -122.69 20 69.37852
v -52.69 20 69.37852
v -122.69 21.2 69.37852
v -52.69 21.2 69.37852
v -52.69 20 69.37852
v -52.69 20 69.89
v -52.69 21.2 69.37852
v -52.69 21.2 69.89
v -122.69 20 69.89
v -122.69 20 69.37852
v -122.69 21.2 69.89
v -122.69 21.2 69.37852
v -52.69 20 69.89
v -122.69 20 69.89
v -52.69 21.2 69.89
v -122.69 21.2 69.89
v -122.69 20 68.90457
v -52.69 20 68.90457
v -122.69 21 68.90457
v -52.69 21 68.90457
v -52.69 20 68.90457
v -52.69 20 69.37852
v -52.69 21 68.90457
v -52.69 21 69.37852
v -122.69 20 69.37852
v -122.69 20 68.90457
v -122.69 21 69.37852
v -122.69 21 68.90457
v -52.69 20 69.37852
v -122.69 20 69.37852
v -52.69 21 69.37852
v -122.69 21 69.37852
v -122.69 20 50.33905
v -52.69 20 50.33905
v -122.69 21 50.33905
v -52.69 21 50.33905
v -52.69 20 50.33905
v -52.69 20 50.8983
v -52.69 21 50.33905
v -52.69 21 50.8983
v -122.69 20 50.8983
v -122.69 20 50.33905
v -122.69 21 50.8983
v -122.69 21 50.33905
v -52.69 20 50.8983
v -122.69 20 50.8983
v -52.69 21 50.8983
v -122.69 21 50.8983

vn 0 0 1
vn 0 0 1
vn 0 0 1
vn 0 0 1
vn 0 0 -1
vn 0 0 -1
vn 0 0 -1
vn 0 0 -1
vn -1 0 0
vn -1 0 0
vn -1 0 0
vn -1 0 0
vn 1 0 0
vn 1 0 0
vn 1 0 0
vn 1 0 0
vn 0 0.9999999 0
vn 0 0.9999999 0
vn 0 0.9999999 0
vn 0 0.9999999 0
vn 0 -0.9999999 0
vn 0 -0.9999999 0
vn 0 -0.9999999 0
vn 0 -0.9999999 0
vn -1 0 0
vn -1 0 0
vn -1 0 0
vn -1 0 0
vn 1 0 0
vn 1 0 0
vn 1 0 0
vn 1 0 0
vn 0 1 0
vn 0 1 0
vn 0 1 0
vn 0 1 0
vn 0 -1 0
vn 0 -1 0
vn 0 -1 0
vn 0 -1 0
vn -1 0 0
vn -1 0 0
vn -1 0 0
vn -1 0 0
vn 1 0 0
vn 1 0 0
vn 1 0 0
vn 1 0 0
vn 0 1 0
vn 0 1 0
vn 0 1 0
vn 0 1 0
vn 0 -1 0
vn 0 -1 0
vn 0 -1 0
vn 0 -1 0
vn -1 0 0
vn -1 0 0
vn -1 0 0
vn -1 0 0
vn -1 0 0
vn -1 0 0
vn -1 0 0
vn -1 0 0
vn 1 0 0
vn 1 0 0
vn 1 0 0
vn 1 0 0
vn 1 0 0
vn 1 0 0
vn 1 0 0
vn 1 0 0
vn 0 1 0
vn 0 1 0
vn 0 1 0
vn 0 1 0
vn 0 1 0
vn 0 1 0
vn 0 1 0
vn 0 1 0
vn 0 -1 0
vn 0 -1 0
vn 0 -1 0
vn 0 -1 0
vn 0 -1 0
vn 0 -1 0
vn 0 -1 0
vn 0 -1 0
vn 0 0 -1
vn 0 0 -1
vn 0 0 -1
vn 0 0 -1
vn 1 0 0
vn 1 0 0
vn 1 0 0
vn 1 0 0
vn -1 0 0
vn -1 0 0
vn -1 0 0
vn -1 0 0
vn 0 0 1
vn 0 0 1
vn 0 0 1
vn 0 0 1
vn 0 0 -1
vn 0 0 -1
vn 0 0 -1
vn 0 0 -1
vn 1 0 0
vn 1 0 0
vn 1 0 0
vn 1 0 0
vn -1 0 0
vn -1 0 0
vn -1 0 0
vn -1 0 0
vn 0 0 1
vn 0 0 1
vn 0 0 1
vn 0 0 1
vn 0 0 -1
vn 0 0 -1
vn 0 0 -1
vn 0 0 -1
vn 1 0 0
vn 1 0 0
vn 1 0 0
vn 1 0 0
vn -1 0 0
vn -1 0 0
vn -1 0 0
vn -1 0 0
vn 0 0 1
vn 0 0 1
vn 0 0 1
vn 0 0 1
vn 0 0 -1
vn 0 0 -1
vn 0 0 -1
vn 0 0 -1
vn 1 0 0
vn 1 0 0
vn 1 0 0
vn 1 0 0
vn -1 0 0
vn -1 0 0
vn -1 0 0
vn -1 0 0
vn 0 0 1
vn 0 0 1
vn 0 0 1
vn 0 0 1

vt 0 0
vt -70 0
vt 0 2
vt -70 2
vt 70 0
vt 0 0
vt 70 2
vt 0 2
vt -19.55095 0
vt -20 0
vt -20 2
vt -19.55095 2
vt -20 0
vt -19.55095 0
vt -19.55095 2
vt -20 2
vt 70 -19.55095
vt 70 -20
vt 0 -20
vt 0 -19.55095
vt 0 -20
vt 70 -20
vt 70 -19.55095
vt 0 -19.55095
vt 0 0
vt -0.5114727 0
vt -0.5114727 2
vt 0 2
vt 0 0
vt 0 2
vt -0.5114727 2
vt -0.5114727 0
vt 0 -0.5114727
vt 0 0
vt 70 0
vt 70 -0.5114727
vt 70 -0.5114727
vt 70 0
vt 0 0
vt 0 -0.5114727
vt -0.5114727 0
vt -0.9854288 0
vt -0.9854288 2
vt -0.5114727 2
vt -0.5114727 0
vt -0.5114727 2
vt -0.9854288 2
vt -0.9854288 0
vt 0 -0.9854288
vt 0 -0.5114727
vt 70 -0.5114727
vt 70 -0.9854288
vt 70 -0.9854288
vt 70 -0.5114727
vt 0 -0.5114727
vt 0 -0.9854288
vt -0.9854288 0
vt -18.9917 0
vt -18.9917 2
vt -0.9854288 2
vt -18.9917 0
vt -19.55095 0
vt -19.55095 2
vt -18.9917 2
vt -0.9854288 0
vt -0.9854288 2
vt -18.9917 2
vt -18.9917 0
vt -18.9917 2
vt -19.55095 2
vt -19.55095 0
vt -18.9917 0
vt 70 -19.55095
vt 0 -19.55095
vt 0 -18.9917
vt 70 -18.9917
vt 0 -18.9917
vt 0 -0.9854288
vt 70 -0.9854288
vt 70 -18.9917
vt 70 -19.55095
vt 70 -18.9917
vt 0 -18.9917
vt 0 -19.55095
vt 70 -18.9917
vt 70 -0.9854288
vt 0 -0.9854288
vt 0 -18.9917
vt 70 2
vt 0 2
vt 70 3.2
vt 0 3.2
vt 20 2
vt 19.55095 2
vt 20 3.2
vt 19.55095 3.2
vt -19.55095 2
vt -20 2
vt -19.55095 3.2
vt -20 3.2
vt 0 2
vt -70 2
vt 0 3.2
vt -70 3.2
vt 70 2
vt 0 2
vt 70 3.2
vt 0 3.2
vt 0.5114727 2
vt 0 2
vt 0.5114727 3.2
vt 0 3.2
vt 0 2
vt -0.5114727 2
vt 0 3.2
vt -0.5114727 3.2
vt 0 2
vt -70 2
vt 0 3.2
vt -70 3.2
vt 70 2
vt 0 2
vt 70 3
vt 0 3
vt 0.9854288 2
vt 0.5114727 2
vt 0.9854288 3
vt 0.5114727 3
vt -0.5114727 2
vt -0.9854288 2
vt -0.5114727 3
vt -0.9854288 3
vt 0 2
vt -70 2
vt 0 3
vt -70 3
vt 70 2
vt 0 2
vt 70 3
vt 0 3
vt 19.55095 2
vt 18.9917 2
vt 19.55095 3
vt 18.9917 3
vt -18.9917 2
vt -19.55095 2
vt -18.9917 3
vt -19.55095 3
vt 0 2
vt -70 2
vt 0 3
vt -70 3

g Bridge (1)
usemtl Default_Prototype
f 3/3/3 4/4/4 2/2/2 1/1/1
f 7/7/7 8/8/8 6/6/6 5/5/5
f 12/12/12 11/11/11 10/10/10 9/9/9
f 13/13/13 16/16/16 15/15/15 14/14/14
f 17/17/17 20/20/20 19/19/19 18/18/18
f 21/21/21 24/24/24 23/23/23 22/22/22
f 28/28/28 27/27/27 26/26/26 25/25/25
f 32/32/32 31/31/31 30/30/30 29/29/29
f 35/35/35 34/34/34 33/33/33 36/36/36
f 40/40/40 39/39/39 38/38/38 37/37/37
f 44/44/44 43/43/43 42/42/42 41/41/41
f 48/48/48 47/47/47 46/46/46 45/45/45
f 51/51/51 50/50/50 49/49/49 52/52/52
f 56/56/56 55/55/55 54/54/54 53/53/53
f 60/60/60 59/59/59 58/58/58 57/57/57
f 64/64/64 63/63/63 62/62/62 61/61/61
f 68/68/68 67/67/67 66/66/66 65/65/65
f 71/71/71 70/70/70 69/69/69 72/72/72
f 76/76/76 75/75/75 74/74/74 73/73/73
f 79/79/79 78/78/78 77/77/77 80/80/80
f 84/84/84 83/83/83 82/82/82 81/81/81
f 88/88/88 87/87/87 86/86/86 85/85/85
f 91/91/91 92/92/92 90/90/90 89/89/89
f 95/95/95 96/96/96 94/94/94 93/93/93
f 99/99/99 100/100/100 98/98/98 97/97/97
f 103/103/103 104/104/104 102/102/102 101/101/101
f 107/107/107 108/108/108 106/106/106 105/105/105
f 111/111/111 112/112/112 110/110/110 109/109/109
f 115/115/115 116/116/116 114/114/114 113/113/113
f 119/119/119 120/120/120 118/118/118 117/117/117
f 123/123/123 124/124/124 122/122/122 121/121/121
f 127/127/127 128/128/128 126/126/126 125/125/125
f 131/131/131 132/132/132 130/130/130 129/129/129
f 135/135/135 136/136/136 134/134/134 133/133/133
f 139/139/139 140/140/140 138/138/138 137/137/137
f 143/143/143 144/144/144 142/142/142 141/141/141
f 147/147/147 148/148/148 146/146/146 145/145/145
f 151/151/151 152/152/152 150/150/150 149/149/149

