# This file uses centimeters as units for non-parametric coordinates.

mtllib small_cactus.mtl
g default
v -0.248303 0.748529 -0.259385
v -0.180171 0.543578 -0.377346
v -0.287264 0.407386 -0.202576
v -0.355396 0.612337 -0.084615
v -0.528899 0.602830 -0.397196
v -0.041354 1.784993 0.326217
v -0.171469 1.454057 0.254168
v 0.117432 1.305328 0.415585
v 0.247545 1.636263 0.487634
v -0.149590 1.568592 0.680565
v 0.996869 1.182000 -0.151708
v 0.893846 1.298499 -0.132539
v 1.008262 1.390738 -0.078187
v 1.111286 1.274239 -0.097357
v 1.090362 1.386365 -0.344701
v 0.403883 0.683616 0.311517
v 0.408766 0.442521 0.525235
v 0.505806 0.239804 0.294334
v 0.500924 0.480899 0.080616
v 0.755373 0.551614 0.376621
v 0.237523 0.256090 -0.403065
v 0.094180 0.516784 -0.385861
v 0.348247 0.651302 -0.307376
v 0.491589 0.390608 -0.324581
v 0.413545 0.523555 -0.658796
v 1.203118 2.407604 -0.041071
v 1.099016 2.361104 0.078169
v 1.192277 2.292452 0.195673
v 1.296380 2.338952 0.076433
v 1.219276 2.550628 0.130652
v 0.457423 2.798110 0.137021
v 0.454675 2.528365 0.379650
v 0.647443 2.321725 0.152100
v 0.650191 2.591470 -0.090529
v 0.847826 2.710450 0.291967
v 1.400214 1.975430 0.241678
v 1.305222 2.400219 -0.123334
v 0.987402 2.359826 0.015463
v 0.224352 0.947621 -0.041737
v 1.275559 1.422871 -0.002825
v 0.899303 1.008413 0.155387
v 0.855127 1.426931 -0.159199
v 1.399293 2.065673 -0.209107
v 1.095533 1.526628 -0.234634
v 0.895608 1.472891 0.168200
v -0.026148 0.395839 0.204886
v 0.337881 0.722164 -0.057563
v -0.247144 0.761050 0.209305
v -0.026351 0.392963 -0.215126
v -0.124165 0.583726 0.295442
v 1.332983 2.389861 0.131702
v -0.163686 0.670772 -0.288593
v 0.869130 0.935906 -0.101033
v 1.186163 2.063988 0.317364
v 1.204751 2.079614 -0.297125
v 1.096591 2.401456 -0.148954
v -0.294938 0.836014 -0.043082
v 0.799575 1.151636 -0.233323
v 0.333695 0.759977 0.093631
v 0.267941 0.884370 0.113050
v 1.266666 1.535221 -0.174691
v 0.819716 1.460291 -0.006579
v 1.487850 2.087407 0.009073
v 0.288299 0.833158 -0.127758
v 0.978643 2.019939 0.218558
v 1.115394 2.404597 0.181943
v 0.919457 1.235107 0.233165
v 0.994024 1.983978 -0.197044
v 0.018231 0.320474 0.001545
v 0.604347 2.323179 -0.422040
v -0.270540 1.812441 0.447664
v 0.776740 1.678924 0.002939
v 0.547758 -0.033780 -0.473776
v 0.778738 -0.044277 -0.035510
v -0.348116 0.915477 -0.433922
v -0.283680 -0.022255 0.471965
v 0.612032 2.264623 0.504503
v 0.113466 3.008340 0.510360
v 0.038257 3.179734 -0.234261
v 0.611063 -0.034286 0.448058
v 0.157476 1.788742 0.661131
v -0.462446 1.223783 0.018889
v 0.179794 2.398790 -0.603676
v 0.101381 -0.023864 -0.630762
v 0.145967 -0.025868 0.639961
v 0.304473 3.223289 -0.126115
v -0.460506 2.644820 0.033173
v -0.295493 2.656506 0.555248
v 0.073684 2.742403 0.725857
v 0.512490 0.755069 -0.436062
v 0.678068 0.777835 -0.023922
v -0.293024 2.269342 0.629972
v -0.272375 2.665063 -0.363657
v -0.261814 3.084800 -0.121163
v -0.242461 1.916420 -0.355288
v 0.557131 0.784476 0.462563
v 0.067725 0.994041 -0.613296
v 0.528078 2.716117 0.508901
v -0.504881 -0.020376 -0.243532
v 0.752853 2.662669 0.102033
v 0.163178 1.817881 -0.538503
v 0.146490 2.253896 0.789222
v 0.607918 2.682127 -0.286959
v -0.491465 2.072206 0.100092
v 0.431720 3.099703 0.090336
v -0.052946 3.130197 0.174625
v -0.459124 0.361469 -0.037967
v 0.652488 1.636333 0.412927
v -0.334176 0.396108 -0.440847
v -0.251916 1.303449 0.434939
v -0.369001 2.977193 0.111017
v 0.160994 1.346240 0.618394
v -0.256218 2.935805 0.409560
v 0.528830 1.452027 -0.394788
v 0.143421 0.721763 0.649390
v -0.303564 2.320330 -0.401735
v -0.268128 0.345482 0.438979
v 0.785112 2.307115 -0.017943
v -0.264352 0.874042 0.470149
v -0.282539 1.439891 -0.387945
v -0.133677 2.781078 -0.268061
v -0.216311 2.946864 -0.172535
v -0.043365 3.056094 -0.212496
v 0.039270 2.890308 -0.308022
v -0.143352 3.000585 -0.452074
vt 0.143507 0.940505
vt 0.130312 0.930223
vt 0.139218 0.914750
vt 0.152412 0.925032
vt 0.234060 0.938132
vt 0.242966 0.932988
vt 0.244464 0.959316
vt 0.214730 0.932989
vt 0.227925 0.941074
vt 0.213232 0.959316
vt 0.115271 0.915568
vt 0.124177 0.931041
vt 0.100578 0.930323
vt 0.110982 0.941323
vt 0.900516 0.724151
vt 0.922327 0.735379
vt 0.912504 0.760364
vt 0.890693 0.749135
vt 0.857806 0.738163
vt 0.852366 0.713179
vt 0.884558 0.721826
vt 0.864553 0.701950
vt 0.836408 0.725504
vt 0.846231 0.750488
vt 0.816249 0.745379
vt 0.824420 0.761717
vt 0.214623 0.971946
vt 0.221586 0.963307
vt 0.230382 0.971085
vt 0.223418 0.979723
vt 0.238010 0.967437
vt 0.246805 0.965990
vt 0.253439 0.982007
vt 0.091007 0.949290
vt 0.084043 0.945187
vt 0.084373 0.965308
vt 0.092838 0.946634
vt 0.157271 0.981580
vt 0.150307 0.977477
vt 0.165736 0.962907
vt 0.662144 0.751581
vt 0.646840 0.769013
vt 0.628638 0.752879
vt 0.643942 0.735446
vt 0.296980 0.962004
vt 0.280846 0.961635
vt 0.292065 0.935468
vt 0.207096 0.959156
vt 0.189664 0.951830
vt 0.195877 0.932988
vt 0.606368 0.919500
vt 0.622503 0.937702
vt 0.600156 0.943041
vt 0.605071 0.953006
vt 0.406277 0.955803
vt 0.416432 0.936622
vt 0.436114 0.947444
vt 0.425958 0.966625
vt 0.056758 0.946486
vt 0.076439 0.945187
vt 0.076950 0.965792
vt 0.250599 0.941393
vt 0.269781 0.935468
vt 0.274710 0.961999
vt 0.373611 0.966690
vt 0.374909 0.947008
vt 0.400141 0.957045
vt 0.380835 0.936853
vt 0.201044 0.963147
vt 0.208084 0.972018
vt 0.200225 0.981021
vt 0.193184 0.972149
vt 0.099635 0.954008
vt 0.108637 0.950497
vt 0.112599 0.964805
vt 0.117508 0.945314
vt 0.124971 0.945314
vt 0.133973 0.948825
vt 0.129880 0.964805
vt 0.142844 0.954008
vt 0.791796 0.761469
vt 0.774617 0.745869
vt 0.792934 0.725504
vt 0.810113 0.741105
vt 0.739007 0.746536
vt 0.738800 0.728218
vt 0.768481 0.734838
vt 0.353729 0.966534
vt 0.338128 0.951981
vt 0.367475 0.936853
vt 0.313675 0.935468
vt 0.331993 0.955832
vt 0.303116 0.964815
vt 0.753561 0.763715
vt 0.181595 0.934921
vt 0.158547 0.949252
vt 0.162340 0.932825
vt 0.800227 0.524256
vt 0.781768 0.565972
vt 0.788282 0.492966
vt 0.184456 0.779221
vt 0.168789 0.775895
vt 0.162520 0.734595
vt 0.757168 0.530971
vt 0.758832 0.598883
vt 0.742789 0.570508
vt 0.283743 0.743246
vt 0.294230 0.701191
vt 0.301893 0.735719
vt 0.809325 0.598042
vt 0.790071 0.597260
vt 0.799329 0.574425
vt 0.702436 0.651515
vt 0.699154 0.611407
vt 0.718513 0.609129
vt 0.770363 0.531923
vt 0.774165 0.573223
vt 0.236122 0.779432
vt 0.279549 0.764030
vt 0.754514 0.492267
vt 0.310139 0.693971
vt 0.324826 0.695023
vt 0.314813 0.735070
vt 0.813202 0.532738
vt 0.244693 0.796453
vt 0.284801 0.780316
vt 0.164321 0.716644
vt 0.115134 0.690164
vt 0.713851 0.651831
vt 0.766200 0.487492
vt 0.706899 0.675647
vt 0.690541 0.679013
vt 0.240950 0.788073
vt 0.352998 0.929253
vt 0.360265 0.890366
vt 0.371951 0.893657
vt 0.390588 0.922952
vt 0.378445 0.888829
vt 0.306223 0.909045
vt 0.345145 0.912414
vt 0.311696 0.925403
vt 0.372053 0.932861
vt 0.326098 0.886857
vt 0.339485 0.893360
vt 0.311913 0.893694
vt 0.195541 0.803823
vt 0.179113 0.804936
vt 0.332670 0.930950
vt 0.206827 0.800333
vt 0.217195 0.821307
vt 0.807641 0.487492
vt 0.200616 0.772535
vt 0.317724 0.669766
vt 0.301973 0.669673
vt 0.183529 0.950672
vt 0.092931 0.653282
vt 0.120098 0.680773
vt 0.085532 0.667467
vt 0.076247 0.680854
vt 0.745646 0.528453
vt 0.815800 0.572785
vt 0.171116 0.958915
vt 0.771401 0.602263
vt 0.162799 0.699529
vt 0.746419 0.602026
vt 0.722250 0.678997
vt 0.694856 0.112468
vt 0.725570 0.096153
vt 0.731701 0.160205
vt 0.763883 0.630133
vt 0.788790 0.606254
vt 0.791793 0.622523
vt 0.552684 0.132055
vt 0.582711 0.114925
vt 0.584769 0.180694
vt 0.757286 0.029844
vt 0.759639 0.069749
vt 0.554712 0.064026
vt 0.260446 0.470122
vt 0.291517 0.498530
vt 0.260731 0.510026
vt 0.630553 0.247107
vt 0.597670 0.215401
vt 0.628012 0.170260
vt 0.913925 0.599274
vt 0.947013 0.581836
vt 0.931308 0.678744
vt 0.291709 0.442087
vt 0.326822 0.441451
vt 0.983520 0.594494
vt 0.998008 0.629607
vt 0.517984 0.064528
vt 0.521732 0.128840
vt 0.514486 0.210359
vt 0.545203 0.206324
vt 0.546086 0.239318
vt 0.574570 0.207793
vt 0.596617 0.176191
vt 0.601568 0.136600
vt 0.645885 0.001960
vt 0.636473 0.064206
vt 0.625787 0.005248
vt 0.755368 0.652672
vt 0.779229 0.647870
vt 0.292843 0.545676
vt 0.322750 0.503264
vt 0.329949 0.567576
vt 0.823094 0.622634
vt 0.691385 0.072877
vt 0.676524 0.001960
vt 0.705759 0.002223
vt 0.690862 0.033666
vt 0.668794 0.042816
vt 0.668525 0.069915
vt 0.662823 0.135683
vt 0.635218 0.108063
vt 0.661590 0.188301
vt 0.902073 0.632973
vt 0.985325 0.662044
vt 0.259272 0.442359
vt 0.806213 0.670575
vt 0.786115 0.678739
vt 0.815820 0.654234
vt 0.726649 0.203435
vt 0.766064 0.204318
vt 0.732526 0.228528
vt 0.756981 0.102167
vt 0.260264 0.580872
vt 0.292578 0.579083
vt 0.258567 0.615366
vt 0.757941 0.140594
vt 0.771705 0.175088
vt 0.502993 0.140346
vt 0.514818 0.176273
vt 0.493323 0.175463
vt 0.291748 0.614200
vt 0.664252 0.247856
vt 0.555587 0.001960
vt 0.588674 0.002753
vt 0.585827 0.062308
vt 0.286252 0.651080
vt 0.258380 0.644596
vt 0.602336 0.044104
vt 0.696690 0.204964
vt 0.714997 0.236652
vt 0.603133 0.012415
vt 0.763461 0.670201
vt 0.604594 0.100623
vt 0.599981 0.070130
vt 0.697322 0.148444
vt 0.693815 0.178938
vt 0.519079 0.002714
vt 0.721278 0.031051
vt 0.554261 0.179481
vt 0.320557 0.649096
vt 0.562427 0.248649
vt 0.326895 0.615010
vt 0.261670 0.542445
vt 0.261346 0.665682
vt 0.755065 0.225404
vt 0.759776 0.002082
vt 0.773171 0.058252
vt 0.035711 0.938748
vt 0.048768 0.946994
vt 0.042529 0.959510
vt 0.029472 0.951264
vt 0.001992 0.945171
vt 0.014508 0.937959
vt 0.018564 0.959063
vt 0.022755 0.940976
vt 0.186211 0.981235
vt 0.173695 0.974023
vt 0.182020 0.963147
vt 0.275185 0.976865
vt 0.262128 0.979882
vt 0.261398 0.965990
vn 0.659373 0.715166 0.231872
vn 0.185086 0.111728 0.976350
vn 0.470909 -0.750537 0.463615
vn 0.941998 -0.183820 -0.280801
vn -0.850971 0.038987 -0.523764
vn 0.189914 0.584588 -0.788790
vn 0.901672 0.200316 -0.383224
vn 0.575768 -0.596201 -0.559496
vn -0.129935 -0.248487 -0.959881
vn -0.498101 0.023778 0.866793
vn -0.201374 -0.968873 0.143992
vn 0.703091 -0.302688 0.643462
vn -0.118854 0.627302 0.769653
vn -0.957312 -0.088269 0.275251
vn 0.249570 0.344854 -0.904870
vn -0.883255 0.444738 -0.148556
vn -0.604028 -0.133995 -0.785617
vn -0.590622 -0.783274 -0.194028
vn -0.861280 -0.240688 0.447511
vn 0.946663 0.234948 0.220519
vn -0.382622 -0.763953 0.519593
vn 0.471996 -0.359711 0.804877
vn -0.021970 0.523778 0.851571
vn -0.818072 0.055001 0.572480
vn 0.264069 0.189361 -0.945733
vn -0.035624 -0.270327 -0.962109
vn 0.678058 -0.695836 -0.236747
vn -0.092413 -0.891604 0.443285
vn -0.817112 -0.530667 -0.225212
vn 0.105268 0.929409 0.353720
vn -0.891285 0.307214 -0.333512
vn -0.404913 -0.216583 -0.888334
vn -0.414490 -0.861840 -0.292285
vn -0.888052 -0.372515 0.269436
vn 0.835966 0.373533 0.402036
vn 0.508530 0.731105 -0.454843
vn -0.279186 0.683646 0.674302
vn 0.614452 0.646581 0.452086
vn 0.837986 -0.482811 0.254309
vn 0.696427 -0.164392 0.698544
vn 0.502732 -0.642054 0.578815
vn 0.050231 0.051031 0.997433
vn -0.810782 0.145648 0.566939
vn -0.685309 0.278300 0.672979
vn -0.848154 0.529737 0.003752
vn -0.919854 0.392187 -0.007581
vn -0.767993 0.141306 -0.624675
vn -0.601439 0.386522 -0.699194
vn -0.013319 -0.089518 -0.995896
vn 0.999947 0.001228 0.010272
vn 0.572633 -0.732362 -0.368426
vn 0.496210 -0.772909 -0.395457
vn -0.446101 0.870527 -0.207790
vn -0.019762 -0.094320 -0.995346
vn -0.007962 0.094311 -0.995511
vn 0.748719 -0.015183 -0.662714
vn 0.718644 -0.337511 -0.607977
vn 0.029864 -0.078056 0.996502
vn -0.245519 0.470807 0.847385
vn 0.426616 -0.525633 0.736009
vn -0.066915 -0.997679 0.012653
vn -0.098914 -0.702798 -0.704479
vn 0.087485 0.074494 -0.993376
vn -0.654612 0.427747 0.623310
vn -0.291738 0.174667 -0.940415
vn -0.746659 0.637045 -0.191502
vn 0.038522 0.016387 0.999123
vn -0.073399 -0.780873 0.620363
vn -0.391071 0.675836 -0.624748
vn -0.713113 0.099764 -0.693914
vn -0.999105 0.003481 0.042149
vn -0.999482 -0.028609 0.014734
vn -0.555298 0.633189 0.539181
vn 0.038646 0.336957 0.940727
vn 0.151537 0.775273 0.613179
vn 0.993393 -0.067871 -0.092541
vn 0.676247 -0.033677 -0.735905
vn 0.672924 0.031387 -0.739046
vn -0.820872 0.016224 0.570882
vn -0.705030 0.012133 0.709074
vn 0.998308 0.018984 -0.054966
vn 0.046888 0.015292 0.998783
vn -0.034145 -0.461564 -0.886450
vn -0.627543 -0.020242 -0.778319
vn 0.021598 0.055915 -0.998202
vn 0.475496 -0.680424 -0.557609
vn 0.641847 -0.765944 -0.036903
vn -0.541139 -0.813585 -0.212715
vn 0.009994 -0.730768 0.682552
vn 0.475191 -0.769499 0.426691
vn 0.768030 0.004712 0.640396
vn 0.785562 -0.054362 0.616391
vn 0.652509 0.385206 0.652571
vn 0.936794 0.326778 0.125029
vn 0.654254 0.729321 0.200104
vn 0.609849 0.426677 -0.667856
vn -0.793413 0.051950 -0.606463
vn 0.386579 0.784826 -0.484361
vn 0.023861 0.154256 -0.987743
vn -0.080863 0.677646 -0.730929
vn -0.849416 0.505985 0.149909
vn -0.189782 0.940592 0.281547
vn 0.093009 -0.010086 0.995614
vn 0.031203 -0.014411 -0.999409
vn 0.667962 0.050496 -0.742480
vn -0.593727 -0.590353 0.546783
vn -0.990784 0.131706 -0.031630
vn -0.793147 0.202255 0.574466
vn -0.726832 -0.010474 0.686735
vn -0.697876 -0.158737 0.698407
vn 0.072766 -0.171671 0.982463
vn -0.698588 -0.082999 0.710694
vn 0.751543 -0.004819 0.659666
vn 0.125778 -0.073021 0.989367
vn -0.550160 0.303527 -0.777943
vn -0.646279 0.644652 -0.408347
vn -0.702213 -0.022663 -0.711607
vn -0.712323 -0.028784 -0.701262
vn -0.990940 -0.000915 0.134305
vn 0.969681 0.038047 -0.241393
vn 0.016792 -0.858267 0.512928
vn 0.862799 -0.382812 0.330202
vn 0.449029 0.420755 0.788250
vn -0.342893 -0.111610 0.932721
vn -0.334530 0.323242 -0.885214
s 1
g polySurface108
usemtl initialShadingGroup
f 1/1/1 4/2/2 3/3/3 2/4/4
f 1/5/1 2/6/4 5/7/5
f 2/8/4 3/9/3 5/10/5
f 3/11/3 4/12/2 5/13/5
f 4/12/2 1/14/1 5/13/5
s 2
f 6/15/6 9/16/7 8/17/8 7/18/9
f 6/19/6 7/20/9 10/21/10
f 7/20/9 8/22/8 10/21/10
f 8/23/8 9/24/7 10/25/10
f 9/24/7 6/26/6 10/25/10
s 3
f 11/27/11 14/28/12 13/29/13 12/30/14
f 11/31/11 12/32/14 15/33/15
f 12/34/14 13/35/13 15/36/15
f 13/35/13 14/37/12 15/36/15
f 14/38/12 11/39/11 15/40/15
s 4
f 16/41/16 19/42/17 18/43/18 17/44/19
f 16/45/16 17/46/19 20/47/20
f 17/48/19 18/49/18 20/50/20
f 18/51/18 19/52/17 20/53/20
f 19/52/17 16/54/16 20/53/20
s 5
f 21/55/21 24/56/22 23/57/23 22/58/24
f 21/59/21 22/60/24 25/61/25
f 22/62/24 23/63/23 25/64/25
f 23/65/23 24/66/22 25/67/25
f 24/66/22 21/68/21 25/67/25
s 6
f 26/69/26 29/70/27 28/71/28 27/72/29
f 26/73/26 27/74/29 30/75/30
f 27/74/29 28/76/28 30/75/30
f 28/77/28 29/78/27 30/79/30
f 29/78/27 26/80/26 30/79/30
s 7
f 31/81/31 34/82/32 33/83/33 32/84/34
f 31/85/31 32/86/34 35/87/35
f 32/88/34 33/89/33 35/90/35
f 33/91/33 34/92/32 35/93/35
f 34/94/32 31/85/31 35/87/35
s 8
f 37/95/36 66/96/37 51/97/38
f 40/98/39 36/99/40 41/100/41
f 54/101/42 65/102/43 45/103/44
f 62/104/45 38/105/46 68/106/47
f 42/107/48 68/108/47 44/109/49
f 37/110/36 51/111/38 63/112/50
f 47/113/51 53/114/52 41/115/41
f 45/116/44 65/117/43 62/104/45
f 39/118/53 42/107/48 58/119/54
f 39/120/53 45/116/44 62/104/45
f 55/121/55 43/122/56 61/123/57
f 40/98/39 63/112/50 36/99/40
f 61/124/57 63/112/50 40/98/39
f 47/125/51 58/119/54 53/126/52
f 67/127/58 54/101/42 45/103/44
f 67/127/58 45/103/44 60/128/59
f 47/113/51 41/115/41 59/129/60
f 60/130/59 45/116/44 39/120/53
f 69/131/61 49/132/62 47/113/51
f 39/118/53 58/119/54 64/133/63
f 48/134/64 60/135/59 39/136/53
f 52/137/65 39/136/53 64/138/63
f 69/139/61 57/140/66 49/141/62
f 52/137/65 57/142/66 39/136/53
f 50/143/67 48/144/64 46/145/68
f 69/131/61 47/113/51 59/129/60
f 51/146/38 66/147/37 54/101/42
f 63/112/50 51/111/38 36/99/40
f 49/141/62 57/140/66 52/148/65
f 52/149/65 64/133/63 49/150/62
f 53/151/52 61/124/57 40/98/39
f 53/151/52 40/98/39 41/100/41
f 36/152/40 51/146/38 54/101/42
f 67/127/58 36/152/40 54/101/42
f 68/108/47 55/121/55 44/109/49
f 55/121/55 37/153/36 43/122/56
f 55/121/55 56/154/69 37/153/36
f 66/96/37 37/95/36 56/155/69
f 48/134/64 39/136/53 57/142/66
f 57/140/66 46/145/68 48/144/64
f 58/119/54 61/123/57 53/126/52
f 42/107/48 44/109/49 58/119/54
f 46/156/68 59/157/60 50/158/67
f 48/159/64 50/158/67 60/128/59
f 59/157/60 67/127/58 60/128/59
f 59/157/60 60/128/59 50/158/67
f 44/109/49 61/123/57 58/119/54
f 44/109/49 55/121/55 61/123/57
f 42/160/48 62/104/45 68/106/47
f 62/104/45 42/160/48 39/120/53
f 43/161/56 37/110/36 63/112/50
f 43/161/56 63/112/50 61/124/57
f 49/150/62 64/133/63 47/125/51
f 64/133/63 58/119/54 47/125/51
f 65/117/43 38/105/46 62/104/45
f 66/96/37 56/155/69 38/162/46
f 65/117/43 66/163/37 38/105/46
f 65/102/43 54/101/42 66/147/37
f 41/164/41 67/127/58 59/157/60
f 41/164/41 36/152/40 67/127/58
f 68/108/47 56/154/69 55/121/55
f 68/106/47 38/105/46 56/165/69
f 69/131/61 59/129/60 46/166/68
f 46/145/68 57/140/66 69/139/61
s 16
f 120/167/70 82/168/71 104/169/72
f 113/170/73 89/171/74 78/172/75
f 72/173/76 114/174/77 70/175/78
f 117/176/79 119/177/80 82/168/71
f 91/178/81 114/174/77 72/173/76
f 117/179/79 115/180/82 119/181/80
f 84/182/83 109/183/84 97/184/85
f 73/185/86 74/186/87 99/187/88
f 85/188/89 80/189/90 115/180/82
f 99/187/88 80/190/90 85/191/89
f 96/192/91 72/173/76 108/193/92
f 98/194/93 100/195/94 105/196/95
f 100/195/94 103/197/96 105/196/95
f 97/184/85 75/198/97 120/199/70
f 86/200/98 83/201/99 79/202/100
f 111/203/101 113/170/73 106/204/102
f 74/186/87 80/190/90 99/187/88
f 96/192/91 91/178/81 72/173/76
f 112/205/103 96/206/91 108/207/92
f 89/171/74 98/208/93 78/172/75
f 75/209/97 82/168/71 120/167/70
f 84/210/83 99/211/88 109/212/84
f 103/213/96 83/201/99 86/200/98
f 70/214/78 114/215/77 101/216/104
f 84/182/83 97/184/85 90/217/105
f 84/218/83 73/185/86 99/187/88
f 76/219/106 99/187/88 85/191/89
f 76/220/106 85/188/89 115/180/82
f 86/221/98 79/222/100 106/204/102
f 98/208/93 105/223/95 78/172/75
f 87/224/107 88/225/108 111/226/101
f 82/168/71 110/227/109 104/169/72
f 71/228/110 81/229/111 92/230/112
f 104/169/72 71/231/110 92/232/112
f 81/233/111 77/234/113 102/235/114
f 81/229/111 102/236/114 92/230/112
f 73/237/86 84/182/83 90/217/105
f 74/238/87 73/239/86 90/240/105
f 96/192/91 74/238/87 91/178/81
f 74/238/87 90/240/105 91/178/81
f 92/230/112 89/241/74 88/242/108
f 104/169/72 92/232/112 88/225/108
f 83/201/99 93/243/115 79/202/100
f 93/244/115 87/224/107 94/245/116
f 93/243/115 94/246/116 79/202/100
f 79/222/100 94/247/116 106/204/102
f 101/216/104 95/248/117 116/249/118
f 95/250/117 104/169/72 116/251/118
f 96/192/91 80/252/90 74/238/87
f 115/180/82 80/189/90 96/206/91
f 101/216/104 116/249/118 83/201/99
f 70/214/78 101/216/104 83/201/99
f 77/234/113 100/195/94 98/194/93
f 77/234/113 98/194/93 102/235/114
f 109/212/84 99/211/88 107/253/119
f 99/211/88 117/176/79 107/253/119
f 118/254/120 103/197/96 100/195/94
f 108/193/92 72/173/76 100/195/94
f 101/216/104 97/184/85 120/199/70
f 97/184/85 101/216/104 114/215/77
f 102/236/114 98/255/93 89/241/74
f 92/230/112 102/236/114 89/241/74
f 118/254/120 70/175/78 103/197/96
f 103/213/96 70/214/78 83/201/99
f 104/169/72 88/225/108 87/224/107
f 104/169/72 87/224/107 116/251/118
f 103/197/96 86/256/98 105/196/95
f 78/172/75 105/223/95 86/221/98
f 78/172/75 86/221/98 106/204/102
f 113/170/73 78/172/75 106/204/102
f 107/253/119 82/168/71 75/209/97
f 107/253/119 117/176/79 82/168/71
f 108/193/92 100/195/94 77/234/113
f 81/229/111 108/207/92 77/257/113
f 97/184/85 109/183/84 75/198/97
f 109/212/84 107/253/119 75/209/97
f 110/258/109 81/229/111 71/228/110
f 104/169/72 110/227/109 71/231/110
f 94/245/116 87/224/107 111/226/101
f 94/247/116 111/203/101 106/204/102
f 110/258/109 112/205/103 81/229/111
f 112/205/103 108/207/92 81/229/111
f 88/242/108 89/241/74 113/259/73
f 111/226/101 88/225/108 113/260/73
f 91/178/81 90/240/105 114/174/77
f 90/217/105 97/184/85 114/215/77
f 119/181/80 115/180/82 112/205/103
f 115/180/82 96/206/91 112/205/103
f 116/251/118 87/224/107 93/244/115
f 83/201/99 116/249/118 93/243/115
f 117/176/79 76/261/106 115/262/82
f 99/211/88 76/261/106 117/176/79
f 72/173/76 70/175/78 118/254/120
f 72/173/76 118/254/120 100/195/94
f 119/181/80 112/205/103 110/258/109
f 82/168/71 119/177/80 110/227/109
f 120/167/70 104/169/72 95/250/117
f 101/216/104 120/199/70 95/248/117
s 31
f 121/263/121 124/264/122 123/265/123 122/266/124
f 121/267/121 122/268/124 125/269/125
f 122/268/124 123/270/123 125/269/125
f 123/271/123 124/272/122 125/273/125
f 124/274/122 121/275/121 125/276/125
